<svg width="46" height="46" viewBox="0 0 46 46" fill="none" xmlns="http://www.w3.org/2000/svg">
<path d="M41.7997 21.4053C39.9288 29.3277 28.9838 36.3503 24.7094 38.8276C23.6417 39.4463 22.3586 39.4463 21.291 38.8276C17.0165 36.3503 6.07149 29.3277 4.20059 21.4053C2.51122 14.2515 6.79873 6.81846 14.0591 6.71164C14.209 6.70944 14.3611 6.70831 14.5154 6.70831C17.4382 6.70831 20.0475 8.16819 21.5772 9.2475C22.413 9.83715 23.5874 9.83715 24.4231 9.2475C25.9528 8.16819 28.5622 6.70831 31.4849 6.70831C31.6392 6.70831 31.7913 6.70944 31.9412 6.71164C39.2016 6.81846 43.4891 14.2515 41.7997 21.4053Z" fill="#FF7D2D"/>
</svg>
