<svg width="62" height="62" viewBox="0 0 62 62" fill="none" xmlns="http://www.w3.org/2000/svg">
<path fill-rule="evenodd" clip-rule="evenodd" d="M36.4246 25.8371C40.8272 25.9059 43.4279 30.6194 42.4036 35.1563L42.28 35.6255C40.856 40.456 34.5491 44.6837 32.0375 46.2061L31.7877 46.3347C31.1966 46.5918 30.5299 46.5489 29.9637 46.2061C27.3711 44.6347 20.7331 40.1804 19.5976 35.1563C18.6051 30.7606 21.0153 26.1996 25.1704 25.8573L25.5766 25.8371C25.6673 25.8357 25.7607 25.8346 25.8541 25.8346C27.6265 25.8347 29.21 26.7596 30.1378 27.4441C30.6445 27.8174 31.3568 27.8177 31.8634 27.4441C32.7913 26.7596 34.3746 25.8346 36.1471 25.8346L36.4246 25.8371ZM36.1471 29.7096C35.9286 29.7096 35.6199 29.769 35.2263 29.9391C34.8363 30.1078 34.4652 30.3402 34.1642 30.5623C32.2898 31.945 29.7115 31.9447 27.837 30.5623C27.5362 30.3404 27.1647 30.1078 26.7749 29.9391C26.3816 29.7691 26.0726 29.7096 25.8541 29.7096C25.7804 29.7096 25.7077 29.711 25.6372 29.7121C24.9576 29.7226 24.3457 30.0456 23.8586 30.8423C23.3375 31.6955 23.0784 32.9711 23.3793 34.3036C23.6771 35.6183 24.8727 37.3156 26.8456 39.1145C28.2709 40.4139 29.8193 41.5124 31.0006 42.2806C32.182 41.5124 33.7302 40.4141 35.1556 39.1145C37.1286 37.3155 38.3242 35.6183 38.6219 34.3036C38.9228 32.9712 38.6636 31.6955 38.1426 30.8423C37.6556 30.0458 37.0435 29.7227 36.364 29.7121C36.2935 29.711 36.2208 29.7096 36.1471 29.7096Z" fill="#FF6330"/>
<path fill-rule="evenodd" clip-rule="evenodd" d="M24.5448 10.3321C28.3185 7.31311 33.68 7.3135 37.4539 10.3321L52.0987 22.0454C55.0218 24.3838 56.4527 28.1211 55.8374 31.8136L53.1053 48.1991L53.017 48.6633C52.0365 53.2534 48.0739 56.6098 43.385 56.822L42.9132 56.8346H19.088L18.6162 56.822C13.927 56.61 9.96205 53.2537 8.98172 48.6633L8.89342 48.1991L6.16377 31.8136C5.54852 28.1214 6.97739 24.3839 9.90002 22.0454L24.5448 10.3321ZM35.0345 13.3569C32.6761 11.4705 29.3252 11.4706 26.9667 13.3569L12.3219 25.0727C10.4954 26.5343 9.60126 28.8703 9.98579 31.1778L12.7154 47.5608C13.2344 50.6747 15.9313 52.9592 19.088 52.9596H42.9132C46.0701 52.9595 48.7642 50.6748 49.2832 47.5608L52.0154 31.1778C52.4 28.8704 51.5056 26.5343 49.6793 25.0727L35.0345 13.3569Z" fill="#FF6330"/>
</svg>
