<svg width="62" height="62" viewBox="0 0 62 62" fill="none" xmlns="http://www.w3.org/2000/svg">
<path fill-rule="evenodd" clip-rule="evenodd" d="M23.2498 23.2405L19.8724 28.4281C19.0257 29.7287 17.724 30.6554 16.2349 31.0412L10.2829 32.583L14.1516 37.2482C15.1418 38.4422 15.6481 39.969 15.5574 41.5263L15.2037 47.6022L21.0179 45.3673L22.4082 48.9843L14.3491 52.0821C12.7759 52.6868 11.0962 51.4828 11.193 49.8199L11.689 41.3011C11.7223 40.7289 11.5366 40.1653 11.1688 39.7217L5.69202 33.1174C4.62296 31.8283 5.26457 29.8802 6.89754 29.4571L15.2632 27.29C15.825 27.1444 16.311 26.7961 16.625 26.3139L21.2993 19.1344C22.2117 17.733 24.288 17.733 25.2004 19.1344L29.8747 26.3139C30.1886 26.7961 30.6746 27.1444 31.2365 27.29L39.6021 29.4571C40.183 29.6076 40.6384 29.951 40.936 30.3891C41.4751 31.1826 41.4965 32.2868 40.8077 33.1174L35.3309 39.7217C35.2808 39.7821 35.2342 39.8446 35.191 39.9091C34.9166 40.3188 34.7819 40.8068 34.8107 41.3011L35.3067 49.8199C35.4035 51.4828 33.7237 52.6868 32.1506 52.0821L24.0915 48.9843L25.4818 45.3673L31.296 47.6022L30.9423 41.5263C30.8516 39.969 31.3579 38.4422 32.3481 37.2482L36.2167 32.583L30.2647 31.0412C28.7757 30.6554 27.474 29.7287 26.6273 28.4282L23.2498 23.2405ZM35.8383 21.643C35.5652 20.905 34.9834 20.3232 34.2454 20.0501L30.9962 18.8478C28.649 17.9792 28.649 14.6593 30.9962 13.7908L34.2454 12.5884C34.9834 12.3154 35.5652 11.7335 35.8383 10.9956L37.0406 7.74636C37.9092 5.39912 41.2291 5.39912 42.0976 7.74637L43.2999 10.9956C43.573 11.7335 44.1549 12.3154 44.8928 12.5884L48.142 13.7908C50.4893 14.6593 50.4893 17.9792 48.142 18.8478L44.8928 20.0501C44.1549 20.3232 43.573 20.905 43.2999 21.643L42.0976 24.8922C41.9335 25.3357 41.6818 25.6955 41.3757 25.9714C41.0779 26.2398 40.7286 26.4289 40.3582 26.5387C39.0944 26.9132 37.5854 26.3643 37.0406 24.8922L35.8383 21.643ZM38.7451 42.2078C38.7447 42.208 38.7455 42.2077 38.7451 42.2078L41.9954 41.0051C42.7334 40.732 43.3152 40.1502 43.5883 39.4122L44.7906 36.163C45.6592 33.8158 48.9791 33.8158 49.8476 36.163L51.0499 39.4122L47.4158 40.757L47.3191 40.4958L47.2225 40.757C46.5569 42.5556 45.1388 43.9737 43.3402 44.6393L43.079 44.7359L43.3402 44.8326C45.1388 45.4981 46.5569 46.9162 47.2225 48.7149L47.3191 48.976L47.4158 48.7149C48.0813 46.9162 49.4994 45.4981 51.2981 44.8326L51.5592 44.7359L51.298 44.6393C49.4994 43.9737 48.0813 42.5556 47.4158 40.757L51.0499 39.4122C51.323 40.1502 51.9049 40.732 52.6428 41.0051L55.892 42.2074C58.2393 43.076 58.2393 46.3959 55.892 47.2644L52.6428 48.4668C51.9049 48.7398 51.323 49.3217 51.0499 50.0596L49.8476 53.3088C48.9791 55.6561 45.6592 55.6561 44.7906 53.3088L43.5883 50.0596C43.3152 49.3217 42.7334 48.7398 41.9954 48.4668L38.7462 47.2644C36.3993 46.396 36.399 43.0771 38.7451 42.2078ZM48.4248 37.5078C48.4244 37.5089 48.424 37.51 48.4236 37.5111ZM24.0915 48.9843C23.5502 48.7763 22.9495 48.7763 22.4082 48.9843L21.0179 45.3673C22.4541 44.8153 24.0456 44.8153 25.4818 45.3673L24.0915 48.9843ZM39.5691 12.0791L39.4725 12.3403C38.8069 14.139 37.3888 15.5571 35.5902 16.2226L35.329 16.3193L35.5902 16.4159C37.3888 17.0815 38.8069 18.4996 39.4725 20.2982L39.5691 20.5594L39.6658 20.2982C40.3313 18.4996 41.7494 17.0815 43.548 16.4159L43.8092 16.3193L43.548 16.2226C41.7494 15.5571 40.3313 14.139 39.6658 12.3403L39.5691 12.0791Z" fill="#FF6330"/>
</svg>
