<svg width="62" height="62" viewBox="0 0 62 62" fill="none" xmlns="http://www.w3.org/2000/svg">
<path d="M13.1134 6.50963C12.4284 5.68759 11.2067 5.57653 10.3846 6.26156C9.56261 6.94659 9.45154 8.16831 10.1366 8.99034L16.5949 16.7403C17.2799 17.5624 18.5017 17.6734 19.3237 16.9884C20.1457 16.3034 20.2568 15.0817 19.5718 14.2596L13.1134 6.50963Z" fill="#FF6330"/>
<path d="M51.8634 8.99034C52.5485 8.16831 52.4374 6.94659 51.6154 6.26156C50.7933 5.57653 49.5716 5.68759 48.8866 6.50963L42.4282 14.2596C41.7432 15.0817 41.8543 16.3034 42.6763 16.9884C43.4983 17.6734 44.7201 17.5624 45.4051 16.7403L51.8634 8.99034Z" fill="#FF6330"/>
<path d="M14.2867 37.5367C15.0433 36.78 15.0433 35.5533 14.2867 34.7966C13.53 34.04 12.3033 34.04 11.5466 34.7966L6.37998 39.9633C5.62334 40.7199 5.62334 41.9467 6.37998 42.7033C7.13662 43.46 8.36338 43.46 9.12002 42.7033L14.2867 37.5367Z" fill="#FF6330"/>
<path d="M50.4534 34.7966C49.6967 34.04 48.47 34.04 47.7133 34.7966C46.9567 35.5533 46.9567 36.78 47.7133 37.5367L52.88 42.7033C53.6366 43.46 54.8634 43.46 55.62 42.7033C56.3767 41.9467 56.3767 40.7199 55.62 39.9633L50.4534 34.7966Z" fill="#FF6330"/>
<path d="M32.9375 49.0833C32.9375 48.0133 32.07 47.1458 31 47.1458C29.9299 47.1458 29.0625 48.0133 29.0625 49.0833V54.25C29.0625 55.32 29.9299 56.1875 31 56.1875C32.07 56.1875 32.9375 55.32 32.9375 54.25V49.0833Z" fill="#FF6330"/>
<path fill-rule="evenodd" clip-rule="evenodd" d="M29.0494 12.3916C29.9619 10.9902 32.0381 10.9902 32.9506 12.3916L37.6249 19.5711C37.9388 20.0533 38.4248 20.4017 38.9867 20.5472L47.3523 22.7143C48.9853 23.1374 49.6269 25.0855 48.5578 26.3746L43.081 32.979C42.7132 33.4225 42.5276 33.9861 42.5609 34.5583L43.0568 43.0772C43.1537 44.74 41.4739 45.944 39.9008 45.3393L31.8416 42.2415C31.3004 42.0335 30.6996 42.0335 30.1584 42.2415L22.0992 45.3393C20.5261 45.944 18.8463 44.74 18.9432 43.0772L19.4391 34.5583C19.4724 33.9861 19.2868 33.4225 18.919 32.979L13.4422 26.3746C12.3731 25.0855 13.0147 23.1374 14.6477 22.7143L23.0133 20.5472C23.5752 20.4017 24.0612 20.0533 24.3751 19.5711L29.0494 12.3916ZM27.6225 21.6854L31 16.4977L34.3775 21.6854C35.2242 22.9859 36.5259 23.9127 38.0149 24.2984L43.9669 25.8403L40.0982 30.5054C39.108 31.6994 38.6018 33.2262 38.6924 34.7835L39.0462 40.8594L33.232 38.6245C31.7957 38.0725 30.2043 38.0725 28.768 38.6245L22.9538 40.8594L23.3076 34.7835C23.3982 33.2262 22.892 31.6994 21.9018 30.5054L18.0331 25.8403L23.9851 24.2984C25.4741 23.9127 26.7758 22.9859 27.6225 21.6854Z" fill="#FF6330"/>
</svg>
