<svg width="795" height="766" viewBox="0 0 795 766" fill="none" xmlns="http://www.w3.org/2000/svg">
<path d="M118.155 711.765C272.781 783.556 523.566 783.556 678.15 711.765C832.734 639.973 832.797 523.396 678.15 451.521C523.502 379.645 272.739 379.729 118.155 451.521C-36.4289 523.312 -36.4922 639.91 118.155 711.765Z" fill="#F5F5F5"/>
<path d="M471.391 606.717C430.153 626.354 363.302 626.354 322.086 606.717C280.869 587.08 280.848 555.196 322.086 535.538C363.323 515.879 430.153 515.901 471.391 535.538C512.629 555.175 512.629 587.059 471.391 606.717Z" fill="#E6E6E6"/>
<path d="M589.023 635.497C644.171 635.497 688.877 614.188 688.877 587.903C688.877 561.618 644.171 540.31 589.023 540.31C533.876 540.31 489.17 561.618 489.17 587.903C489.17 614.188 533.876 635.497 589.023 635.497Z" fill="#E6E6E6"/>
<path d="M275.696 622.384C235.852 641.388 171.26 641.388 131.395 622.384C91.5296 603.381 91.5508 572.616 131.395 553.612C171.239 534.609 235.852 534.609 275.696 553.612C315.54 572.616 315.498 603.402 275.696 622.384Z" fill="#E6E6E6"/>
<path d="M136.652 496.39C135.026 476.12 117.015 435.325 93.7883 410.663C70.5616 386 36.0384 369.488 13.2129 379.391C-7.98668 388.682 -3.34135 417.187 24.7418 434.058C52.8249 450.929 94.6118 471.622 108.928 503.548L136.652 541.893V496.39Z" fill="#FF725E"/>
<path opacity="0.1" d="M136.652 496.39C135.026 476.12 117.015 435.325 93.7883 410.663C70.5616 386 36.0384 369.488 13.2129 379.391C-7.98668 388.682 -3.34135 417.187 24.7418 434.058C52.8249 450.929 94.6118 471.622 108.928 503.548L136.652 541.893V496.39Z" fill="black"/>
<path d="M140.368 523.988C140.047 523.989 139.733 523.885 139.477 523.69C139.222 523.495 139.037 523.221 138.953 522.911C119.823 454.836 59.3493 403.103 24.9317 393.391C24.5875 393.254 24.3062 392.995 24.1418 392.663C23.9773 392.331 23.9415 391.95 24.0411 391.594C24.1408 391.237 24.3689 390.93 24.6814 390.732C24.994 390.533 25.3689 390.457 25.734 390.519C60.8696 400.443 122.441 452.999 141.867 522.108C141.925 522.329 141.932 522.56 141.887 522.784C141.842 523.007 141.747 523.217 141.608 523.399C141.47 523.58 141.292 523.727 141.088 523.829C140.884 523.931 140.659 523.985 140.431 523.988H140.368Z" fill="white"/>
<path d="M133.611 569.026C129.388 557.899 114.038 540.225 90.283 526.5C64.0158 511.34 31.8786 505.976 23.5381 493.181C13.5295 477.83 25.8396 461.508 51.6635 462.69C77.4873 463.873 125.25 495.123 136.652 547.066L133.611 569.026Z" fill="#FF725E"/>
<path d="M137.602 556.737C137.318 556.736 137.04 556.654 136.801 556.5C136.562 556.347 136.371 556.129 136.251 555.871C110.279 498.312 63.4037 481.166 42.2463 480.11C42.0522 480.101 41.8619 480.053 41.6863 479.97C41.5107 479.886 41.3532 479.769 41.2228 479.625C41.0924 479.481 40.9917 479.313 40.9264 479.13C40.8611 478.947 40.8325 478.752 40.8422 478.558C40.8519 478.364 40.8997 478.174 40.983 477.998C41.0662 477.823 41.1832 477.665 41.3274 477.535C41.4715 477.405 41.6398 477.304 41.8229 477.238C42.0059 477.173 42.2 477.145 42.3941 477.154C65.7897 478.294 112.454 495.904 138.954 554.647C139.035 554.824 139.08 555.016 139.087 555.211C139.094 555.406 139.062 555.6 138.993 555.783C138.924 555.965 138.82 556.132 138.687 556.274C138.553 556.416 138.393 556.531 138.215 556.61C138.022 556.695 137.813 556.738 137.602 556.737Z" fill="white"/>
<path d="M660.181 499.072C661.595 481.483 669.64 452.618 690.101 425.169C711.976 395.734 738.666 377.322 758.472 385.937C776.926 393.961 769.937 419.447 738.159 444.574C715.882 462.205 692.761 485.157 680.325 512.86L660.181 548.122V499.072Z" fill="#FF725E"/>
<g opacity="0.1">
<path d="M660.181 499.072C661.596 481.483 669.641 452.618 690.101 425.169C711.977 395.734 738.666 377.322 758.472 385.937C776.927 393.961 769.938 419.447 738.159 444.574C715.883 462.205 692.762 485.157 680.325 512.86L660.181 548.122V499.072Z" fill="black"/>
</g>
<path d="M661.955 512.48C662.212 512.479 662.463 512.4 662.674 512.253C662.885 512.105 663.047 511.897 663.137 511.656C680.853 462.901 717.72 413.577 748.907 396.896C749.053 396.82 749.183 396.716 749.288 396.59C749.393 396.463 749.472 396.316 749.519 396.159C749.566 396.001 749.581 395.835 749.563 395.672C749.545 395.508 749.494 395.35 749.413 395.206C749.336 395.062 749.231 394.934 749.104 394.831C748.977 394.727 748.831 394.65 748.674 394.603C748.517 394.556 748.352 394.54 748.189 394.557C748.027 394.573 747.868 394.622 747.724 394.7C716.052 411.592 678.678 461.529 660.793 510.833C660.736 510.987 660.71 511.15 660.716 511.314C660.722 511.479 660.76 511.64 660.829 511.789C660.898 511.938 660.995 512.072 661.116 512.183C661.237 512.295 661.378 512.381 661.532 512.438L661.955 512.48Z" fill="white"/>
<path d="M661.955 559.165C672.189 567.207 684.356 572.42 697.238 574.284C719.472 577.81 729.291 567.168 729.291 567.168C729.291 567.168 720.528 546.327 707.901 540.479C707.901 540.479 729.312 544.828 746.478 556.294C746.478 556.294 760.055 556.505 765.482 535.791C765.482 535.791 757.437 523.312 730.452 516.576C730.452 516.576 746.88 512.353 770.571 518.498C772.344 519.195 779.904 492.399 782.205 480.047C784.507 467.695 779.524 467.821 769.895 465.266C760.267 462.711 727.454 461.043 721.33 466.386C715.207 471.728 712.23 489.802 712.23 489.802C712.23 489.802 706.465 479.54 707.838 470.397C701.12 468.47 693.975 468.639 687.356 470.883C676.524 474.663 677.221 479.92 677.221 487.775C677.178 495.709 678.265 503.608 680.451 511.234C680.451 511.234 672.977 504.773 672.723 480.934C672.723 480.934 658.09 493.455 652.22 504.161C646.35 514.866 647.85 543.118 661.955 559.165Z" fill="#FF725E"/>
<path d="M661.955 560.432C662.192 560.427 662.423 560.358 662.624 560.231C662.825 560.105 662.988 559.926 663.095 559.714C681.022 522.446 747.724 479.139 771.606 474.494C771.932 474.427 772.219 474.235 772.405 473.958C772.591 473.682 772.66 473.343 772.598 473.016C772.532 472.695 772.342 472.413 772.069 472.231C771.796 472.049 771.463 471.982 771.141 472.044C746.838 476.753 679.058 520.757 660.836 558.616C660.764 558.765 660.723 558.926 660.714 559.09C660.705 559.254 660.729 559.419 660.783 559.574C660.838 559.729 660.924 559.872 661.034 559.994C661.144 560.116 661.278 560.214 661.427 560.285C661.589 560.374 661.77 560.424 661.955 560.432Z" fill="white"/>
<path d="M352.786 142.817L331.65 214.735L354.75 226.623L372.761 166.656L352.786 142.817Z" fill="#FFA8A7"/>
<path d="M376.351 114.502C365.139 115.705 355.341 125.798 350.844 141.614C346.346 157.429 340.286 182.028 340.286 182.028C340.286 182.028 352.575 195.478 369.256 191.403L376.351 114.502Z" fill="#E6E6E6"/>
<path d="M347.529 531.378V528.337C346.283 531.885 340.476 547.109 331.946 554.647C325.147 560.643 315.92 567.548 313.491 574.326C311.063 581.104 326.034 583.976 332.305 582.962C339.59 581.801 349.049 577.831 354.265 571.623C357.939 567.252 360.304 562.058 362.943 558.616C365.582 555.175 371.537 551.395 372.994 547.404C373.796 545.293 372.994 540.352 371.959 536.255C370.925 532.159 370.038 528.337 368.75 528.675C368.75 529.14 368.75 530.977 368.75 530.977C367.187 532.666 362.901 534.292 358.087 534.397C354.983 534.482 347.466 533.743 347.529 531.378Z" fill="#263238"/>
<path d="M325.843 559.926C327.955 558.11 330.066 556.336 331.988 554.626C337.942 549.368 342.545 540.331 345.248 534.165C346.771 530.649 347.589 526.868 347.655 523.037L347.845 510.938L370.101 509.904L368.749 531.019V531.526H368.623C367.546 535.918 357.622 547.489 351.963 555.048C348.183 560.116 341.025 566.513 332.6 567.506C324.598 568.477 320.565 565.901 325.843 559.926Z" fill="#FFA8A7"/>
<path d="M456.061 535.242L455.258 532.328C455.047 536.065 453.78 552.324 447.72 561.889C442.885 569.554 435.98 578.781 435.537 585.961C435.093 593.14 450.317 591.683 456.04 588.959C462.712 585.771 470.672 579.288 473.924 571.877C476.205 566.661 477.028 561.002 478.569 556.969C480.111 552.936 484.798 547.615 485.073 543.371C485.221 541.028 482.961 536.614 480.85 532.962C478.738 529.309 476.775 525.909 475.634 526.627C475.74 527.07 476.247 528.865 476.247 528.865C475.212 530.977 471.559 533.679 466.977 535.2C464.106 536.129 456.673 537.544 456.061 535.242Z" fill="#263238"/>
<path d="M443.307 568.752C444.807 566.408 446.348 564.106 447.72 561.953C451.943 555.196 453.844 545.25 454.688 538.578C455.16 534.773 454.873 530.912 453.844 527.218L450.634 515.563L471.074 509.904L476.331 528.907L476.458 529.414C476.648 533.933 470.398 547.827 467.083 556.674C464.971 562.607 459.84 570.758 452.007 574.094C444.532 577.303 439.929 575.973 443.307 568.752Z" fill="#FFA8A7"/>
<path d="M444.616 225.335C456.399 240.453 458.531 256.079 455.955 300.273C453.379 344.467 452.577 381.46 453.231 383.952C453.886 386.444 463.451 406.735 466.956 423.142C471.074 442.335 472.087 513.557 472.087 513.557C469.448 516.184 466.165 518.072 462.567 519.032C458.969 519.991 455.181 519.989 451.584 519.025C451.584 519.025 417.462 404.328 414.147 394.446C410.832 384.564 389.865 279.749 389.865 279.749L393.053 220.626L444.616 225.335Z" fill="#37474F"/>
<path d="M354.603 276.201C356.397 255.783 360.768 220.415 360.768 220.415L412.965 217.354C421.411 230.529 417.737 252.447 415.435 272.253L385.579 389.125C386.191 394.721 391.343 406.587 385.579 436.676C379.244 470.271 370.27 514.528 370.27 514.528C370.27 514.528 359.037 519.701 347.782 514.971C347.782 514.971 343.559 408.53 346.22 379.454C349.282 348.014 353.378 290.159 354.603 276.201Z" fill="#37474F"/>
<path d="M399.008 325.759L390.562 282.895C383.018 280.21 375.856 276.555 369.256 272.021C373.474 277.355 378.505 281.994 384.164 285.767L399.008 325.759Z" fill="#263238"/>
<path d="M354.75 107.998H396.79C410.432 107.998 423.515 102.579 433.161 92.9328C442.808 83.2866 448.227 70.2035 448.227 56.5617C448.229 50.4236 447.023 44.345 444.676 38.6733C442.329 33.0016 438.887 27.8479 434.548 23.5065C430.209 19.1652 425.056 15.7214 419.386 13.3718C413.715 11.0222 407.637 9.81282 401.499 9.81282C389.1 9.81282 377.21 14.7381 368.442 23.5052C359.675 32.2724 354.75 44.1632 354.75 56.5617V107.998Z" fill="#263238"/>
<path d="M440.393 115.98C448.501 116.381 454.477 117.901 459.988 133.843C465.499 149.785 476.985 210.977 473.143 217.354L447.509 206.543L441.174 172.948C426.584 160.512 427.407 120.456 440.393 115.98Z" fill="#FFA8A7"/>
<path d="M364.062 187.243C362.774 199.173 357.981 243.22 357.981 243.22C397.318 264.208 446.115 250.314 453.59 241.657C446.833 219.381 439.548 206.712 433.974 200.778L441.069 172.948C441.069 172.948 423.501 147.821 440.393 115.938L419.531 114.227L388.893 113.34C381.566 113.742 376.351 114.459 376.351 114.459C371.642 118.851 364.252 130.908 359.459 143.197C356.355 151.158 353.019 163.806 364.062 187.243Z" fill="#F5F5F5"/>
<path d="M440.393 115.98C449.621 115.452 455.174 117.732 461.825 132.555C468.476 147.378 473.861 183.569 473.861 183.569C473.861 183.569 468.223 195.035 440.351 191.783L436.128 166.656C436.128 166.656 423.839 140.537 440.393 115.98Z" fill="#E6E6E6"/>
<path d="M437.5 186.948C437.163 188.32 427.935 200.504 423.417 203.375C418.898 206.247 431.44 210.217 433.193 217.354C436.761 231.754 426.394 247.295 391.195 248.245C382.876 248.456 382.517 250.23 386.824 252.764C418.096 257.916 447.889 248.266 453.59 241.657C446.833 219.381 439.549 206.712 433.974 200.778L437.5 186.948Z" fill="#E6E6E6"/>
<path d="M371.452 30.1678C366.511 33.0817 360.409 45.4974 361 71.5324C361.528 93.5977 368.665 98.9821 372.255 100.629C375.844 102.276 382.812 101.241 389.506 100.122V113.361C389.71 114.748 390.189 116.081 390.914 117.281C391.639 118.481 392.596 119.524 393.729 120.351C399.198 123.792 405.701 122.462 409.354 121.174C417.399 118.281 419.004 114.312 419.004 114.312L418.856 83.8636C418.856 83.8636 422.804 87.7277 429.519 81.7521C435.072 76.9167 436.951 68.7452 432.623 64.3532C431.504 63.3079 430.151 62.5441 428.678 62.1248C427.205 61.7055 425.654 61.6429 424.152 61.942C422.65 62.2412 421.241 62.8936 420.041 63.8452C418.841 64.7969 417.884 66.0205 417.251 67.4149C417.251 67.4149 413.303 67.7317 409.354 60.4047C409.354 60.4047 409.481 40.472 405.131 37.8748C390.942 29.7244 380.954 30.1678 371.452 30.1678Z" fill="#FFA8A7"/>
<path d="M385.642 64.5855C385.638 65.127 385.794 65.6576 386.089 66.1114C386.385 66.5653 386.807 66.9225 387.303 67.1387C387.8 67.3549 388.349 67.4206 388.882 67.3277C389.416 67.2348 389.91 66.9873 390.304 66.616C390.699 66.2447 390.975 65.7659 391.1 65.2389C391.224 64.7119 391.191 64.1599 391.005 63.6515C390.819 63.143 390.488 62.7003 390.052 62.3784C389.617 62.0565 389.096 61.8695 388.556 61.8405C387.807 61.8234 387.081 62.1017 386.536 62.6154C385.99 63.1291 385.669 63.8368 385.642 64.5855Z" fill="#263238"/>
<g style="mix-blend-mode:multiply" opacity="0.5">
<path d="M384.903 84.6871L378.463 86.7986C378.579 87.2335 378.782 87.6402 379.06 87.994C379.338 88.3478 379.685 88.6413 380.08 88.8566C380.475 89.072 380.91 89.2046 381.358 89.2465C381.806 89.2884 382.258 89.2386 382.686 89.1002C383.556 88.7969 384.275 88.1666 384.689 87.3428C385.102 86.5191 385.179 85.5666 384.903 84.6871Z" fill="#F28F8F"/>
</g>
<path d="M364.421 55.9283L370.038 52.0431C369.806 51.6631 369.499 51.3346 369.136 51.0779C368.773 50.8212 368.361 50.6418 367.925 50.5508C367.49 50.4597 367.04 50.459 366.605 50.5486C366.169 50.6382 365.756 50.8163 365.392 51.0718C364.642 51.6049 364.123 52.4046 363.943 53.3073C363.762 54.2099 363.933 55.1475 364.421 55.9283Z" fill="#263238"/>
<path d="M389.506 54.8514L395.84 57.3008C396.025 56.8939 396.123 56.4534 396.13 56.0067C396.136 55.5601 396.05 55.117 395.878 54.7049C395.706 54.2928 395.45 53.9207 395.128 53.6117C394.805 53.3026 394.422 53.0634 394.003 52.9088C393.147 52.6027 392.207 52.633 391.372 52.9936C390.537 53.3542 389.87 54.0181 389.506 54.8514Z" fill="#263238"/>
<path d="M363.175 63.9943C363.168 64.5408 363.321 65.0775 363.616 65.5375C363.911 65.9976 364.335 66.3607 364.835 66.5817C365.335 66.8027 365.889 66.8719 366.428 66.7806C366.966 66.6893 367.467 66.4415 367.866 66.0682C368.265 65.6948 368.546 65.2124 368.673 64.6808C368.8 64.1492 368.768 63.5919 368.581 63.0784C368.394 62.5648 368.06 62.1176 367.62 61.7924C367.181 61.4672 366.656 61.2783 366.11 61.2493C365.737 61.2352 365.364 61.2952 365.014 61.4258C364.664 61.5564 364.343 61.755 364.071 62.0102C363.798 62.2654 363.578 62.5721 363.424 62.9127C363.271 63.2532 363.186 63.6208 363.175 63.9943Z" fill="#263238"/>
<g style="mix-blend-mode:multiply" opacity="0.5">
<path d="M377.28 62.3896L376.837 79.0917L368.053 76.3889L377.28 62.3896Z" fill="#F28F8F"/>
</g>
<g style="mix-blend-mode:multiply" opacity="0.5">
<path d="M389.506 100.122C396.601 99.1932 411.212 94.9913 413.472 89.2269C412.557 92.14 410.774 94.704 408.362 96.5749C403.991 100.312 389.506 104.535 389.506 104.535V100.122Z" fill="#F28F8F"/>
</g>
<path d="M408.256 12.3044L409.333 0.0576173C408.534 -0.0543404 407.72 -0.00277975 406.942 0.209176C406.164 0.421132 405.436 0.789064 404.805 1.29063C404.173 1.79219 403.649 2.41693 403.266 3.12693C402.883 3.83692 402.648 4.61736 402.576 5.42086C402.423 7.08555 402.934 8.74328 403.998 10.0327C405.062 11.3221 406.592 12.1387 408.256 12.3044Z" fill="#263238"/>
<path d="M408.911 13.5502L418.835 6.28659C418.392 5.61889 417.819 5.04715 417.15 4.60538C416.481 4.1636 415.731 3.86081 414.943 3.71503C414.155 3.56925 413.346 3.58346 412.563 3.7568C411.781 3.93015 411.041 4.2591 410.389 4.72407C409.059 5.72647 408.165 7.20048 407.89 8.84248C407.615 10.4845 407.98 12.1694 408.911 13.5502Z" fill="#263238"/>
<path d="M417.23 67.4993V79.1549C416.192 79.1577 415.164 78.9553 414.205 78.5595C413.245 78.1636 412.374 77.582 411.64 76.8481C410.906 76.1142 410.324 75.2426 409.928 74.2832C409.533 73.3238 409.33 72.2957 409.333 71.2578V60.5525L417.23 67.4993Z" fill="#263238"/>
<path d="M385.642 12.5789C380.488 12.5761 375.384 13.5888 370.622 15.5592C365.86 17.5295 361.532 20.4189 357.887 24.0622C354.242 27.7055 351.35 32.0313 349.377 36.7925C347.404 41.5538 346.389 46.6571 346.389 51.8108V56.8996H365.603C369.923 56.8981 374.096 55.3315 377.349 52.4897C380.602 49.6479 382.716 45.7236 383.298 41.4433L384.016 56.8996C387.569 56.9023 390.994 55.5718 393.613 53.1713C396.233 50.7707 397.856 47.4747 398.163 43.9349L398.395 41.4011C398.744 45.6136 400.659 49.5423 403.763 52.4116C406.867 55.2809 410.934 56.8823 415.161 56.8996H416.85L418.814 29.1754L385.642 12.5789Z" fill="#263238"/>
<path d="M423.374 62.2628H401.436C400.996 60.1971 399.861 58.3448 398.22 57.0151C396.579 55.6855 394.531 54.959 392.419 54.957H391.005C389.193 54.9756 387.427 55.5259 385.926 56.5394C384.424 57.5529 383.253 58.985 382.559 60.6581C381.137 59.2187 379.217 58.3797 377.195 58.3143C375.491 58.1754 373.796 58.6801 372.444 59.729C371.657 58.2876 370.497 57.0842 369.086 56.2447C367.674 55.4052 366.063 54.9604 364.421 54.957H363.006C360.564 54.957 358.223 55.9269 356.496 57.6534C354.77 59.3799 353.8 61.7215 353.8 64.1632C353.8 66.6048 354.77 68.9465 356.496 70.673C358.223 72.3995 360.564 73.3694 363.006 73.3694H364.421C365.63 73.3694 366.827 73.1313 367.944 72.6686C369.061 72.206 370.076 71.5278 370.931 70.673C371.785 69.8181 372.463 68.8032 372.926 67.6862C373.389 66.5693 373.627 65.3721 373.627 64.1632C373.617 63.169 373.438 62.1838 373.099 61.2493C373.629 60.7444 374.262 60.3602 374.955 60.1233C375.647 59.8864 376.383 59.8023 377.111 59.8768C378.06 59.8825 378.994 60.1087 379.841 60.5374C380.687 60.9662 381.423 61.5857 381.989 62.3473C381.861 62.9583 381.797 63.5811 381.798 64.2054C381.804 66.6453 382.776 68.9837 384.501 70.709C386.226 72.4343 388.565 73.406 391.005 73.4116H392.419C393.628 73.4116 394.826 73.1735 395.942 72.7108C397.059 72.2482 398.074 71.5701 398.929 70.7152C399.784 69.8603 400.462 68.8454 400.925 67.7285C401.387 66.6115 401.626 65.4144 401.626 64.2054C401.626 64.0787 401.626 63.9731 401.626 63.8676H420.291C421.223 63.166 422.265 62.6238 423.374 62.2628ZM364.357 71.8069H362.943C360.915 71.8069 358.971 71.0016 357.538 69.5681C356.104 68.1346 355.299 66.1904 355.299 64.1632C355.299 62.1359 356.104 60.1917 357.538 58.7583C358.971 57.3248 360.915 56.5195 362.943 56.5195H364.357C366.385 56.5195 368.329 57.3248 369.762 58.7583C371.196 60.1917 372.001 62.1359 372.001 64.1632C372.001 66.1904 371.196 68.1346 369.762 69.5681C368.329 71.0016 366.385 71.8069 364.357 71.8069ZM392.419 71.8069H391.005C388.977 71.8069 387.033 71.0016 385.6 69.5681C384.166 68.1346 383.361 66.1904 383.361 64.1632C383.361 62.1359 384.166 60.1917 385.6 58.7583C387.033 57.3248 388.977 56.5195 391.005 56.5195H392.419C394.447 56.5195 396.391 57.3248 397.824 58.7583C399.258 60.1917 400.063 62.1359 400.063 64.1632C400.063 66.1904 399.258 68.1346 397.824 69.5681C396.391 71.0016 394.447 71.8069 392.419 71.8069Z" fill="#455A64"/>
<path d="M473.143 217.354C467.421 224.026 415.436 272.253 415.436 272.253L417.23 243.135L447.509 206.564L473.143 217.354Z" fill="#FFA8A7"/>
<path d="M372.719 294.529L390.329 282.029C407.221 270.099 427.217 251.349 427.217 229.79C427.008 222.226 424.142 214.976 419.123 209.312C414.105 203.649 407.252 199.932 399.768 198.814C385.874 196.956 374.43 210.639 372.656 223.815C370.924 210.174 359.438 193.43 345.544 191.593C342.133 191.008 338.635 191.186 335.302 192.116C331.968 193.046 328.883 194.703 326.267 196.97C323.652 199.236 321.571 202.054 320.176 205.221C318.781 208.388 318.106 211.825 318.2 215.284C318.2 236.885 338.217 260.935 354.983 277.321L372.719 294.529Z" fill="#FF725E"/>
<path d="M420.629 251.623C413.556 255.846 401.478 255.994 393.349 256.353C385.219 256.712 375.168 269.149 381.777 274.174C386.858 277.491 392.868 279.092 398.926 278.743C404.984 278.393 410.77 276.111 415.435 272.232L420.629 251.623Z" fill="#FFA8A7"/>
<path d="M319.129 223.181C317.187 224.744 316.616 229.833 317.799 235.238C318.981 240.643 323.563 249.068 330.067 251.623C333.044 252.806 345.988 253.186 352.217 246.492C358.804 239.398 358.277 227.257 348.796 229.41C339.751 231.11 330.517 231.579 321.346 230.804C320.425 228.32 319.684 225.772 319.129 223.181Z" fill="#FFA8A7"/>
<path d="M662.503 549.009H641.684V579.309H662.503V549.009Z" fill="#FFA8A7"/>
<path d="M641.684 569.026V566.07C639.699 566.936 635.054 584.588 626.798 592.105C620.252 598.102 611.299 605.007 609.019 611.679C606.738 618.351 621.477 622.469 627.621 621.371C634.737 620.104 647.089 615.036 650.193 610.454C653.297 605.872 654.733 598.925 657.267 595.526C659.801 592.126 665.586 588.304 666.938 584.377C667.698 582.265 666.811 577.451 665.755 573.439C664.784 569.765 663.749 565.711 662.482 566.07V568.33C660.983 569.998 656.802 571.666 652.094 571.856C649.116 571.961 641.663 571.37 641.684 569.026Z" fill="#263238"/>
<path d="M570.716 556.125L549.917 556.843L551.691 526.184L572.49 525.487L570.716 556.125Z" fill="#FFA8A7"/>
<path d="M550.298 550.424C549.2 550.424 548.376 551.986 546.075 554.647C542.523 558.248 538.39 561.224 533.849 563.452C526.057 567.358 510.897 573.355 504.055 576.438C499.832 578.38 499.959 583.553 504.393 586.488C508.827 589.423 519.512 591.556 532.35 588.6C539.339 587.037 548.439 580.576 554.204 580.935C559.968 581.294 570.737 581.189 574.981 578.254C579.225 575.319 577.536 569.069 576.333 563.684C575.023 557.814 573.144 548.629 571.202 549.03L571.075 551.48C568.562 555.28 555.703 556.04 550.213 553.253L550.298 550.424Z" fill="#263238"/>
<path d="M574.01 160.934C564.614 169.95 509.25 198.941 506.209 198.413C501.648 197.78 485.094 181.521 470.947 166.487C468.73 155.043 465.478 140.621 461.846 132.555C459.981 127.837 457.204 123.532 453.675 119.886L454.625 116.001L508.215 166.677C508.215 166.677 567.021 122.336 575.784 119.802C584.546 117.268 583.406 151.918 574.01 160.934Z" fill="#F28F8F"/>
<path d="M433.742 109.329C426.563 111.123 421.073 115.98 422.276 123.75C423.058 128.86 431.504 132.597 436.044 128.712C439.696 125.566 450.634 118.028 455.638 121.892C456.771 124.187 457.163 126.777 456.757 129.304C456.42 133.358 458.489 136.25 459.714 136.06C460.938 135.87 462.839 129.409 463.029 126.875C463.303 122.948 461.065 111.419 443.518 109.096C440.273 108.569 436.958 108.647 433.742 109.329Z" fill="#FFA8A7"/>
<path d="M704.184 238.638C703.72 232.303 693.015 203.629 687.694 191.783L660.729 204.452L671.055 228.101L698.99 249.681C706.233 248.541 704.396 241.298 704.184 238.638Z" fill="#FFA8A7"/>
<path d="M651.397 255.825C651.397 275.695 653.973 404.244 653.973 404.244C654.459 409.945 661.743 428.758 662.419 455.342C663.264 485.199 664.151 552.472 664.151 552.472C664.151 552.472 654.395 562.143 640.628 552.472C640.628 552.472 617.93 454.202 610.94 416.871C607.689 391.068 599.559 317.059 599.559 317.059L582.667 401.309C584.153 411.212 584.859 421.216 584.779 431.229C584.779 444.954 572.806 533.975 572.806 533.975C572.806 533.975 561.045 541.112 549.77 534.355C549.77 534.355 542.992 413.851 542.802 401.33C542.57 386 553.93 255.804 553.93 255.804L651.397 255.825Z" fill="#37474F"/>
<path d="M599.622 317.102L597.194 299.111C597.194 299.111 581.505 291.911 576.079 286.801C576.079 286.801 585.939 299.829 592.147 303.461L584.546 392.588L599.622 317.102Z" fill="#263238"/>
<path d="M583.66 117.162C572.828 117.162 558.322 126.706 546.075 136.166C533.828 145.626 523.65 153.417 523.65 153.417C525.762 164.861 533.047 175.335 540.901 183.907L575.763 165.009C575.763 165.009 590.965 134.054 583.66 117.162Z" fill="#E6E6E6"/>
<path d="M620.062 118.197C638.728 122.695 662.398 130.233 670.738 147.42C679.079 164.608 691.853 192.48 691.853 192.48C683.173 200.961 672.577 207.226 660.962 210.745L651.481 194.233V255.825C636.891 271.683 586.024 279.052 554.162 255.825V154.473C554.162 138.256 563.157 118.788 587.946 117.331L620.062 118.197Z" fill="#F5F5F5"/>
<path d="M651.397 194.233C651.397 194.233 642.043 178.016 640.016 174.11L651.397 213.278V194.233Z" fill="#E6E6E6"/>
<path d="M627.072 35.2356C628.748 35.0395 630.446 35.2287 632.038 35.7885C633.63 36.3484 635.073 37.2642 636.257 38.4662C640.184 42.4992 639.382 49.9528 636.257 67.0983L624.095 68.4919L627.072 35.2356Z" fill="#263238"/>
<path d="M556.062 30.2735C553.441 30.2962 550.845 29.7712 548.439 28.7321C544.702 26.6206 543.73 30.8436 545.779 34.5388C547.137 37.1791 549.148 39.4283 551.62 41.0728C554.093 42.7173 556.944 43.7026 559.905 43.935C560.01 43.4071 563.41 34.4332 563.41 34.4332L556.062 30.2735Z" fill="#263238"/>
<path d="M621.371 68.5975C623.166 69.6744 625.742 66.1904 627.98 63.8677C630.218 61.545 637.482 58.3355 641.114 65.9792C644.745 73.6229 636.426 84.1382 631.485 87.5589C625.636 91.6341 621.371 88.4457 621.371 88.4457L620.062 118.26C620.062 118.26 613.601 134.076 596.096 136.462C578.592 138.848 582.181 124.32 587.882 117.162V106.33C587.882 106.33 578.845 108.104 574.559 107.006C571.466 106.022 568.663 104.289 566.402 101.96C564.14 99.6324 562.488 96.7814 561.594 93.6612C556.775 77.7761 555.769 60.9784 558.659 44.6318C563.093 17.5833 593.604 17.1821 610.708 27.8875C627.811 38.5929 621.371 68.5975 621.371 68.5975Z" fill="#FFA8A7"/>
<path d="M621.371 71.5536C622.279 71.5536 625.721 65.8314 627.98 63.7833C631.105 60.9327 627.072 35.2356 627.072 35.2356C627.072 35.2356 630.239 25.5015 624.074 19.0403C617.908 12.579 605.957 13.6559 597.215 13.3392C586.488 13.389 575.866 11.2329 566.007 7.00465C553.591 1.59918 552.662 0.965728 551.227 6.41343C549.791 11.8611 549.115 24.3402 556.505 32.7018L562.65 34.9611C562.65 34.9611 565.986 37.9172 577.557 39.3319C589.128 40.7466 607.118 39.0574 609.61 38.7196C612.967 38.2551 613.685 41.5068 615.48 50.3963C616.979 58.2722 618.309 71.4903 621.371 71.5536Z" fill="#263238"/>
<path d="M627.051 37.2415L637.989 31.3715C637.639 30.6357 637.144 29.9784 636.533 29.439C635.923 28.8996 635.209 28.4893 634.436 28.2329C633.663 27.9764 632.845 27.8791 632.034 27.9467C631.222 28.0144 630.432 28.2456 629.712 28.6265C628.249 29.4479 627.157 30.7997 626.662 32.4029C626.166 34.0061 626.306 35.7382 627.051 37.2415Z" fill="#263238"/>
<path d="M587.882 106.415C587.882 106.415 604.099 103.142 609.757 100.08C613.095 98.3519 615.827 95.6491 617.591 92.3309C616.741 95.6451 615.233 98.7544 613.157 101.474C608.934 106.774 587.819 110.68 587.819 110.68L587.882 106.415Z" fill="#F28F8F"/>
<path d="M591.873 64.3745C591.865 64.8071 591.942 65.2371 592.099 65.64C592.257 66.0428 592.493 66.4106 592.793 66.7224C593.093 67.0342 593.451 67.2838 593.848 67.457C594.244 67.6302 594.671 67.7236 595.104 67.7318C595.778 67.7613 596.446 67.588 597.021 67.2343C597.597 66.8805 598.053 66.3625 598.331 65.7471C598.608 65.1317 598.696 64.4472 598.581 63.7818C598.466 63.1164 598.154 62.5007 597.686 62.0141C597.218 61.5275 596.614 61.1924 595.954 61.052C595.294 60.9116 594.606 60.9724 593.98 61.2264C593.355 61.4805 592.82 61.9162 592.444 62.4773C592.068 63.0384 591.87 63.6993 591.873 64.3745Z" fill="#263238"/>
<path d="M595.906 51.0086L602.853 54.8304C603.334 53.874 603.433 52.7707 603.131 51.7437C602.83 50.7167 602.149 49.8426 601.227 49.2983C600.768 49.049 600.263 48.8954 599.743 48.8467C599.223 48.7981 598.698 48.8554 598.201 49.0153C597.704 49.1752 597.244 49.4343 596.849 49.7769C596.455 50.1195 596.134 50.5385 595.906 51.0086Z" fill="#263238"/>
<path d="M592.105 86.482L584.694 89.2692C584.855 89.7654 585.115 90.2241 585.457 90.6178C585.799 91.0115 586.218 91.3322 586.687 91.5608C587.156 91.7894 587.666 91.9211 588.187 91.9482C588.708 91.9754 589.229 91.8973 589.719 91.7186C590.705 91.309 591.5 90.5412 591.942 89.5696C592.385 88.5981 592.443 87.4948 592.105 86.482Z" fill="#F28F8F"/>
<path d="M561.763 55.1049L568.098 50.2062C567.798 49.7802 567.416 49.4192 566.973 49.1448C566.53 48.8703 566.037 48.6882 565.522 48.6093C565.007 48.5304 564.482 48.5564 563.978 48.6857C563.473 48.815 563 49.0449 562.587 49.3616C561.742 50.0325 561.186 51.0014 561.033 52.0695C560.879 53.1375 561.141 54.2236 561.763 55.1049Z" fill="#263238"/>
<path d="M564.846 63.5299C564.874 64.1659 565.089 64.7794 565.464 65.2944C565.838 65.8093 566.356 66.203 566.952 66.4266C567.548 66.6502 568.197 66.6939 568.817 66.5523C569.438 66.4106 570.004 66.0898 570.444 65.6297C570.884 65.1696 571.179 64.5904 571.293 63.964C571.407 63.3376 571.335 62.6915 571.085 62.1059C570.835 61.5203 570.419 61.0209 569.887 60.6697C569.356 60.3185 568.734 60.131 568.097 60.1303C567.218 60.1579 566.384 60.5296 565.776 61.1653C565.168 61.8011 564.834 62.6502 564.846 63.5299Z" fill="#263238"/>
<path d="M581.4 60.4471L580.323 79.9786L570.125 76.5157L581.4 60.4471Z" fill="#F28F8F"/>
<path d="M544.533 271.408L558.49 263.976C571.814 256.881 587.714 244.846 587.714 227.763C587.714 215.791 578.022 203.101 566.05 199.406C555.049 196.006 545.969 205.234 544.576 215.432C543.203 204.368 534.124 189.524 523.102 186.124C511.15 182.408 501.458 189.123 501.458 201.074C501.458 218.177 517.295 240.031 530.597 255.34L544.533 271.408Z" fill="#FF725E"/>
<path d="M698.991 249.639L671.055 228.059C671.055 228.059 614.741 237.223 608.132 237.73C601.523 238.237 595.695 233.253 593.183 226.771C590.67 220.289 586.721 220.985 586.721 220.985C587.776 224.613 587.992 228.432 587.355 232.155C585.074 234.605 572.046 237.054 563.262 234.077C554.479 231.1 541.746 235.428 549.622 247.379C557.498 259.331 572.849 260.745 583.406 260.745C587.854 260.718 592.297 260.421 596.709 259.858C600.151 259.415 603.592 259.056 607.055 258.824C628.93 257.261 689.088 252.764 698.991 249.639Z" fill="#FFA8A7"/>
<path d="M199.661 116.782C218.876 113.277 219.721 115.916 280.194 149.743C280.194 149.743 351.416 120.857 359.862 115.959C368.308 111.06 380.407 107.829 389.423 113.34C387.235 113.401 385.067 113.771 382.983 114.438C381.948 114.945 378.485 116.719 378.929 118.302C379.098 118.978 379.921 119.189 380.618 119.231C382.092 119.341 383.574 119.27 385.031 119.02C386.72 118.725 388.726 118.302 389.887 119.548C390.303 120.112 390.513 120.8 390.482 121.499C390.451 122.199 390.182 122.866 389.718 123.391C388.776 124.427 387.605 125.23 386.298 125.735L379.963 128.67C378.421 129.315 376.955 130.13 375.592 131.098C374.347 132.027 373.291 133.21 372.003 134.118C367.991 136.884 363.282 135.448 359.08 137.243C358.363 137.538 357.645 137.918 356.969 138.235C353.865 139.713 350.909 141.445 347.953 143.197C339.338 148.307 330.913 153.755 322.467 159.118C314.021 164.481 306.018 169.675 297.53 174.469C294.443 176.486 291.098 178.077 287.585 179.198C277.027 181.753 216.363 155.381 216.363 155.381L199.661 116.782Z" fill="#9E6767"/>
<path d="M175.886 13.8246H190.286C200.893 13.8246 211.065 18.038 218.565 25.538C226.065 33.038 230.278 43.2101 230.278 53.8167V60.4891C230.281 65.7122 229.255 70.8847 227.258 75.711C225.261 80.5373 222.333 84.9229 218.64 88.6172C214.948 92.3114 210.564 95.242 205.739 97.2414C200.913 99.2409 195.742 100.27 190.518 100.27H175.738C165.193 100.27 155.08 96.081 147.623 88.6246C140.167 81.1682 135.978 71.0551 135.978 60.5102V53.8167C135.978 43.2247 140.18 33.0654 147.662 25.5678C155.143 18.0703 165.294 13.847 175.886 13.8246Z" fill="#FF725E"/>
<path d="M154.876 572.32V569.279C156.08 572.848 161.633 588.156 170.037 595.842C176.73 601.945 185.873 608.997 188.196 615.796C190.519 622.595 175.527 625.256 169.192 624.242C161.929 622.954 152.532 618.816 147.401 612.544C143.812 608.11 141.531 602.874 138.955 599.411C136.379 595.948 130.509 592.042 129.073 588.03C128.313 585.918 129.221 580.977 130.298 576.881C131.269 573.144 132.41 569.005 133.613 569.364V571.665C135.155 573.376 139.42 575.086 144.171 575.255C147.38 575.361 154.897 574.685 154.876 572.32Z" fill="#263238"/>
<path d="M176.139 601.205C174.027 599.347 171.916 597.553 170.079 595.821C164.209 590.458 159.732 581.357 157.156 575.149C155.679 571.611 154.918 567.814 154.918 563.979V551.881H133.655V571.581V572.088H133.761C134.795 576.501 144.53 588.22 150.062 595.863C153.757 600.994 160.809 607.519 169.234 608.638C177.216 609.778 181.291 607.265 176.139 601.205Z" fill="#9E6767"/>
<path d="M237.647 551.395V548.354C238.829 551.923 244.383 567.358 252.808 574.917C259.501 581.02 268.623 588.072 270.946 594.892C273.268 601.712 258.277 604.331 251.942 603.233C244.657 601.945 235.261 597.827 230.151 591.535C226.562 587.122 224.26 581.885 221.705 578.401C219.15 574.917 213.259 571.053 211.844 567.02C211.063 564.909 211.971 559.968 213.048 555.893C214.04 552.134 215.159 548.017 216.384 548.354V550.677C217.925 552.387 222.191 554.077 226.942 554.267C230.13 554.372 237.668 553.76 237.647 551.395Z" fill="#263238"/>
<path d="M258.868 580.302C256.756 578.443 254.645 576.628 252.808 574.896C246.916 569.533 242.44 560.432 239.864 554.224C238.403 550.681 237.65 546.887 237.647 543.054V531.019H216.532V550.698V551.226C217.545 555.639 227.279 567.379 232.811 575.023C236.528 580.154 243.58 586.678 252.005 587.797C259.966 588.853 264.062 586.34 258.868 580.302Z" fill="#9E6767"/>
<path d="M137.878 242.565C121.43 278.461 138.47 405.046 138.47 405.046C137.984 410.874 131.312 422.36 128.841 448.015C125.906 478.337 133.444 554.457 133.444 554.457C136.677 556.334 140.32 557.392 144.055 557.539C147.791 557.686 151.505 556.918 154.876 555.301C154.876 555.301 175.104 440.646 178.905 410.515C182.22 384.205 188.597 326.35 188.597 326.35L206.693 410.367C204.048 418.845 202.134 427.534 200.97 436.339C199.239 454.054 216.427 536.614 216.427 536.614C216.427 536.614 223.754 539.317 237.542 537.269C237.542 537.269 243.623 427.702 245.207 406.355C247.909 370.459 238.386 258.549 231.798 237.434L137.878 242.565Z" fill="#37474F"/>
<path d="M188.597 326.35L193.939 292.988C193.939 292.988 216.533 288.3 226.773 278.672C226.773 278.672 216.026 292.038 200.063 296.43L194.066 322.106L204.624 399.915L188.597 326.35Z" fill="#263238"/>
<path d="M166.89 117.753C145.775 119.189 144.339 129.388 139.06 140.515C135.185 149.094 134.821 158.848 138.047 167.691L152.827 210.217C152.827 210.217 145.965 226.855 138.047 242.565C174.935 263.152 220.987 252.32 232.073 237.307C232.537 234.119 229.687 209.203 227.85 192.965C234.353 176.665 236.063 166.339 233.318 155.571C228.23 135.575 208.487 116.106 199.745 116.803L166.89 117.753Z" fill="#F5F5F5"/>
<path d="M154.2 239.271C154.2 239.271 158.55 221.978 160.112 218.156C160.619 216.613 161.629 215.285 162.98 214.385C164.332 213.485 165.947 213.065 167.566 213.194C165.203 211.626 163.173 209.606 161.593 207.25C160.013 204.895 158.914 202.25 158.36 199.469L153.883 176.981C153.883 176.981 162.203 150.566 161.358 141.529L140.243 142.754L137.519 144.654C135.274 152.173 135.481 160.212 138.11 167.606L152.891 210.132C152.891 210.132 146.029 226.771 138.11 242.48C165.286 257.641 197.444 255.762 216.912 247.696L154.2 239.271Z" fill="#E6E6E6"/>
<path d="M111.062 226.961C111.189 225.293 118.474 180.508 124.259 150.355C128.144 130 136.253 122.546 152.131 120.097L157.769 119.21C165.307 143.978 160.113 155.106 150.167 172.146L140.792 217.375L118.094 240.327C110.281 238.764 110.893 229.305 111.062 226.961Z" fill="#9E6767"/>
<path d="M214.779 32.9127C219.762 35.8688 225.928 48.3901 225.337 74.6785C224.809 96.9549 217.588 102.466 213.977 104.05C210.366 105.633 203.419 104.662 196.557 103.543V116.909C196.557 116.909 205.953 127.825 205.362 133.949C204.771 140.072 191.785 141.529 183.001 135.532C177.302 131.435 172.412 126.316 168.579 120.435V88.1288C168.579 88.1288 163.976 94.2522 156.48 89.269C148.985 84.2858 148.689 71.9335 153.039 67.4993C157.388 63.0651 166.827 64.4798 168.579 70.6032C168.579 70.6032 179.411 71.0044 193.918 63.0651C199.516 60.0277 204.322 55.7157 207.946 50.4777C211.57 45.2398 213.911 39.2227 214.779 32.9127Z" fill="#9E6767"/>
<path d="M200.443 69.0829C200.45 69.6336 200.295 70.1744 199.998 70.6379C199.701 71.1015 199.273 71.4673 198.77 71.6899C198.266 71.9125 197.708 71.9822 197.165 71.89C196.622 71.7979 196.118 71.5482 195.716 71.1719C195.314 70.7956 195.031 70.3093 194.903 69.7736C194.775 69.2379 194.807 68.6764 194.996 68.159C195.185 67.6416 195.522 67.1911 195.964 66.8636C196.407 66.536 196.936 66.3459 197.486 66.3169C197.863 66.3028 198.238 66.3633 198.59 66.495C198.943 66.6266 199.266 66.8268 199.541 67.084C199.816 67.3411 200.037 67.6502 200.192 67.9933C200.346 68.3364 200.432 68.7067 200.443 69.0829Z" fill="#263238"/>
<path d="M201.181 87.981L207.685 90.0925C207.569 90.5276 207.366 90.9347 207.088 91.2892C206.81 91.6438 206.464 91.9385 206.069 92.1555C205.675 92.3725 205.24 92.5074 204.792 92.552C204.344 92.5967 203.891 92.5501 203.462 92.4152C202.578 92.1201 201.845 91.491 201.419 90.6624C200.992 89.8339 200.907 88.8715 201.181 87.981Z" fill="#874C4C"/>
<path d="M223.416 60.4891L217.736 56.5617C217.973 56.1797 218.286 55.85 218.655 55.5927C219.024 55.3354 219.441 55.1558 219.882 55.065C220.322 54.9741 220.776 54.9738 221.217 55.0642C221.658 55.1545 222.075 55.3335 222.445 55.5904C223.202 56.1278 223.725 56.9351 223.906 57.8463C224.086 58.7575 223.911 59.7032 223.416 60.4891Z" fill="#263238"/>
<path d="M222.107 67.0559C222.114 67.6066 221.96 68.1474 221.662 68.6109C221.365 69.0744 220.937 69.4403 220.434 69.6629C219.93 69.8855 219.372 69.9551 218.829 69.863C218.286 69.7709 217.782 69.5211 217.38 69.1448C216.978 68.7685 216.695 68.2823 216.567 67.7466C216.439 67.2109 216.472 66.6494 216.66 66.132C216.849 65.6146 217.186 65.1641 217.628 64.8365C218.071 64.509 218.6 64.3189 219.15 64.2898C219.527 64.2757 219.902 64.3362 220.254 64.4679C220.607 64.5996 220.93 64.7998 221.205 65.0569C221.48 65.3141 221.701 65.6231 221.856 65.9662C222.01 66.3093 222.096 66.6797 222.107 67.0559Z" fill="#263238"/>
<path d="M208.889 65.4511L209.332 82.3221L218.2 79.5772L208.889 65.4511Z" fill="#874C4C"/>
<path d="M196.536 103.543C189.378 102.593 174.618 98.3696 172.338 92.5418C173.255 95.4876 175.053 98.0815 177.49 99.9744C181.903 103.754 196.494 107.998 196.494 107.998L196.536 103.543Z" fill="#874C4C"/>
<path d="M265.836 266.362L252.407 259.204C239.59 252.383 224.303 240.791 224.303 224.364C224.303 212.856 233.615 200.63 245.122 197.083C255.68 193.81 264.464 202.678 265.794 212.497C267.124 201.939 275.866 187.56 286.445 184.287C297.952 180.74 307.285 187.18 307.285 198.688C307.285 215.136 292.04 236.146 279.244 250.884L265.836 266.362Z" fill="#FF725E"/>
<path d="M118.093 240.306L140.792 217.353C140.792 217.353 198.077 230.023 204.539 230.635C211 231.247 216.131 225.314 220.671 220.204C221.222 219.541 221.912 219.007 222.694 218.642C223.475 218.277 224.327 218.09 225.189 218.092C224.55 220.139 224.356 222.299 224.619 224.427C225.59 227.13 239.843 230.023 248.458 227.109C257.073 224.195 269.573 228.418 261.782 240.137C253.99 251.856 239.083 253.186 228.652 253.207C224.296 253.177 219.946 252.888 215.624 252.341C212.267 251.898 208.909 251.56 205.51 251.307C184.205 249.723 127.785 243.346 118.093 240.306Z" fill="#9E6767"/>
<path d="M141.764 18.8711C150.97 22.7352 148.901 30.6323 145.058 39.8174C141.215 49.0024 137.034 56.0549 127.828 52.1908C123.409 50.3428 119.906 46.8152 118.088 42.3841C116.271 37.9531 116.288 32.9815 118.136 28.563C119.984 24.1445 123.511 20.6411 127.942 18.8236C132.374 17.006 137.345 17.0231 141.764 18.8711Z" fill="#FF725E"/>
<path d="M149.871 27.106L153.102 11.7342C152.104 11.4716 151.064 11.4142 150.043 11.5656C149.023 11.7169 148.043 12.0739 147.165 12.6148C146.286 13.1557 145.527 13.8694 144.932 14.7125C144.338 15.5556 143.92 16.5106 143.706 17.5197C143.304 19.6038 143.721 21.7625 144.869 23.5475C146.017 25.3326 147.808 26.607 149.871 27.106Z" fill="#FF725E"/>
</svg>
