<svg width="24" height="24" viewBox="0 0 24 24" fill="none" xmlns="http://www.w3.org/2000/svg">
<path fill-rule="evenodd" clip-rule="evenodd" d="M19.1005 4.95848C20.8928 6.76574 22 9.25358 22 12C22 17.5228 17.5228 22 12 22C6.47715 22 2 17.5228 2 12C2 6.47715 6.47715 2 12 2C14.7464 2 17.2343 3.10718 19.0416 4.89954C19.0518 4.90876 19.0619 4.91831 19.0718 4.9282C19.0817 4.93809 19.0913 4.94819 19.1005 4.95848ZM20.5 12C20.5 16.6944 16.6944 20.5 12 20.5C9.92283 20.5 8.01969 19.7549 6.54324 18.5175L18.5175 6.54324C19.7549 8.01969 20.5 9.92283 20.5 12ZM5.48258 17.4568L17.4568 5.48258C15.9803 4.24509 14.0772 3.5 12 3.5C7.30558 3.5 3.5 7.30558 3.5 12C3.5 14.0772 4.24509 15.9803 5.48258 17.4568Z" fill="#363538"/>
</svg>
