<svg width="24" height="24" viewBox="0 0 24 24" fill="none" xmlns="http://www.w3.org/2000/svg">
  <path d="M12 2C6.48 2 2 6.48 2 12C2 17.52 6.48 22 12 22C17.52 22 22 17.52 22 12C22 6.48 17.52 2 12 2ZM12 20C7.59 20 4 16.41 4 12C4 7.59 7.59 4 12 4C16.41 4 20 7.59 20 12C20 16.41 16.41 20 12 20Z" fill="currentColor"/>
  <path d="M12.5 7C12.22 7 12 7.22 12 7.5V10H9.5C9.22 10 9 10.22 9 10.5C9 10.78 9.22 11 9.5 11H12V13.5C12 13.78 12.22 14 12.5 14C12.78 14 13 13.78 13 13.5V11H15.5C15.78 11 16 10.78 16 10.5C16 10.22 15.78 10 15.5 10H13V7.5C13 7.22 12.78 7 12.5 7Z" fill="currentColor"/>
</svg>
