<svg width="24" height="24" viewBox="0 0 24 24" fill="none" xmlns="http://www.w3.org/2000/svg">
<path fill-rule="evenodd" clip-rule="evenodd" d="M11.2978 2.26308L5.29775 4.51309C4.51715 4.80581 4 5.55189 4 6.38558L4 11.9997C4.00002 15.5583 9.00282 19.1169 11.0961 20.4501C11.6561 20.8067 12.3538 20.8233 12.9271 20.4885C15.0339 19.2579 20 15.9392 20 11.9997V6.38559C20 5.5519 19.4829 4.80581 18.7023 4.51308L12.7023 2.26308C12.2495 2.09329 11.7505 2.0933 11.2978 2.26308ZM15.0211 10.5389C15.319 10.2511 15.3272 9.7763 15.0394 9.4784C14.7516 9.1805 14.2768 9.17232 13.9789 9.46012L11.397 11.9545L10.0234 10.6162C9.72673 10.3271 9.25189 10.3333 8.96283 10.63C8.67376 10.9266 8.67993 11.4015 8.9766 11.6905L10.8713 13.5367C11.1617 13.8196 11.6243 13.8206 11.9158 13.5389L15.0211 10.5389Z" fill="#D4846A"/>
</svg>
