<svg width="20" height="20" viewBox="0 0 20 20" fill="none" xmlns="http://www.w3.org/2000/svg">
<path fill-rule="evenodd" clip-rule="evenodd" d="M10 20C15.5228 20 20 15.5228 20 10C20 4.47715 15.5228 0 10 0C4.47715 0 0 4.47715 0 10C0 15.5228 4.47715 20 10 20ZM6.28693 13.6295C6.76433 14.5093 7.88527 16 10 16C12.1147 16 13.2357 14.5093 13.7131 13.6295C13.8758 13.3296 13.6476 13 13.3063 13H6.69371C6.35243 13 6.12416 13.3296 6.28693 13.6295ZM8 7.5C8 8.32843 7.32843 9 6.5 9C5.67157 9 5 8.32843 5 7.5C5 6.67157 5.67157 6 6.5 6C7.32843 6 8 6.67157 8 7.5ZM13.5 9C14.3284 9 15 8.32843 15 7.5C15 6.67157 14.3284 6 13.5 6C12.6716 6 12 6.67157 12 7.5C12 8.32843 12.6716 9 13.5 9Z" fill="#5D5A88"/>
</svg>
