<svg viewBox="0 0 100 100" fill="none" xmlns="http://www.w3.org/2000/svg">
  <!-- Heart shape -->
  <path
    d="M50 85C25 70, 15 55, 15 42C15 30, 23 22, 32 22C39 22, 46 28, 50 35C54 28, 61 22, 68 22C77 22, 85 30, 85 42C85 55, 75 70, 50 85Z"
    fill="#D4846A"
    opacity="0.95"
  />

  <!-- Inner lighter heart for depth -->
  <path
    d="M50 80C28 67, 20 54, 20 42C20 32, 27 25, 35 25C41 25, 47 30, 50 36C53 30, 59 25, 65 25C73 25, 80 32, 80 42C80 54, 72 67, 50 80Z"
    fill="#D4846A"
    opacity="0.6"
  />
</svg>
